<svg width="211" height="50" viewBox="0 0 211 50" fill="none" xmlns="http://www.w3.org/2000/svg">
<path fill-rule="evenodd" clip-rule="evenodd" d="M73.3926 39.9873H69.8359L64.0164 19.2834L58.1969 39.9873H54.6401L62.238 12.9566L62.5888 11.7087H65.444L65.7947 12.9566L73.3926 39.9873Z" fill="black"/>
<path fill-rule="evenodd" clip-rule="evenodd" d="M58.7629 33.3522V30.5128H69.0106V33.3522H58.7629Z" fill="black"/>
<path fill-rule="evenodd" clip-rule="evenodd" d="M75.2194 39.9873H78.7675V22.6013H75.2194V39.9873Z" fill="black"/>
<path fill-rule="evenodd" clip-rule="evenodd" d="M84.6179 39.9872H88.1661V24.9786H84.6179V39.9872Z" fill="black"/>
<path fill-rule="evenodd" clip-rule="evenodd" d="M88.1659 23.9237V29.6726C88.1659 30.4672 87.527 31.1212 86.7507 31.1212H84.6178V24.7789C84.6178 22.2051 78.7675 22.8798 78.7675 24.3349V31.1212H76.6347C75.8567 31.1212 75.2194 30.4694 75.2194 29.6726V22.2811C75.2194 20.241 88.1659 18.6604 88.1659 23.9237Z" fill="black"/>
<path fill-rule="evenodd" clip-rule="evenodd" d="M91.4685 39.9873H95.0167V11.7087H92.8262C92.0794 11.7087 91.4685 12.3336 91.4685 13.0983V39.9873Z" fill="black"/>
<path fill-rule="evenodd" clip-rule="evenodd" d="M117.16 39.5403C118.106 39.3034 119.362 38.5286 119.362 37.5519V29.4594V24.8719V23.1986C119.362 18.7577 107.271 20.3162 107.271 21.7003V24.1928C110.396 23.5171 110.776 23.2296 113.832 23.2296C114.922 23.2296 115.814 24.1215 115.814 25.2118V28.7436C114.734 28.1921 113.517 28.0779 112.325 28.0876C105.43 28.1442 105.887 37.5632 109.903 39.3644C111.979 40.2959 115.187 40.0339 117.16 39.5403ZM115.814 31.1584V36.2271C115.814 36.9904 115.189 37.6147 114.426 37.6147H113.261C110.885 37.6147 110.381 35.3437 110.53 33.3086C110.816 29.4004 115.814 29.7063 115.814 31.1584Z" fill="black"/>
<path fill-rule="evenodd" clip-rule="evenodd" d="M100.867 39.9872H104.415V24.9786H100.867V39.9872Z" fill="black"/>
<path fill-rule="evenodd" clip-rule="evenodd" d="M104.415 23.5952V29.6726C104.415 30.4658 103.775 31.1212 103 31.1212H100.867V24.779C100.867 22.2051 95.0167 22.8798 95.0167 24.3349V31.1212H92.8838C92.1084 31.1212 91.4685 30.4694 91.4685 29.6726V24.6903C91.4685 22.131 104.248 16.8556 104.415 23.5952Z" fill="black"/>
<path fill-rule="evenodd" clip-rule="evenodd" d="M122.777 39.9873H126.326V22.6013H122.777V39.9873Z" fill="black"/>
<path fill-rule="evenodd" clip-rule="evenodd" d="M132.176 39.9872H135.724V24.9786H132.176V39.9872Z" fill="black"/>
<path fill-rule="evenodd" clip-rule="evenodd" d="M135.724 23.9237V29.6726C135.724 30.4672 135.085 31.1212 134.309 31.1212H132.176V24.7789C132.176 22.2051 126.326 22.8798 126.326 24.3349V31.1212H124.193C123.415 31.1212 122.777 30.4694 122.777 29.6726V22.2811C122.777 20.241 135.724 18.6604 135.724 23.9237Z" fill="black"/>
<path fill-rule="evenodd" clip-rule="evenodd" d="M168.669 20.3635H165.121V37.7495H168.669V20.3635Z" fill="black"/>
<path fill-rule="evenodd" clip-rule="evenodd" d="M159.27 20.3635H155.722V35.372H159.27V20.3635Z" fill="black"/>
<path fill-rule="evenodd" clip-rule="evenodd" d="M155.722 36.4269V30.678C155.722 29.8834 156.361 29.2294 157.137 29.2294H159.27V36.0097C159.27 38.5836 165.12 37.9085 165.12 36.4538V29.2294H167.253C168.031 29.2294 168.669 29.8812 168.669 30.678V38.0696C168.669 40.1096 155.722 41.6902 155.722 36.4269Z" fill="black"/>
<path fill-rule="evenodd" clip-rule="evenodd" d="M187.887 39.9873H191.435V22.6013H187.887V39.9873Z" fill="black"/>
<path fill-rule="evenodd" clip-rule="evenodd" d="M195.424 23.2527C193.698 22.6961 191.435 23.3291 191.435 24.3349V31.1212H189.302C188.524 31.1212 187.887 30.4694 187.887 29.6726V22.5001C187.887 21.5217 190.865 20.43 193.964 20.368C195.931 20.3287 196.851 20.3749 196.851 22.2269V22.6291C196.851 24.222 196.472 23.5907 195.424 23.2527Z" fill="black"/>
<path fill-rule="evenodd" clip-rule="evenodd" d="M208.312 39.5403C209.259 39.3034 210.514 38.5286 210.514 37.5519V29.4594V24.8719V23.1986C210.514 18.7577 198.423 20.3162 198.423 21.7003V24.1928C201.548 23.5171 201.928 23.2296 204.984 23.2296C206.074 23.2296 206.966 24.1215 206.966 25.2118V28.7436C205.886 28.1921 204.669 28.0779 203.477 28.0876C196.582 28.1442 197.039 37.5632 201.055 39.3644C203.132 40.2959 206.34 40.0339 208.312 39.5403ZM206.966 31.1584V36.2271C206.966 36.9904 206.342 37.6147 205.579 37.6147H204.413C202.037 37.6147 201.533 35.3437 201.682 33.3086C201.969 29.4004 206.966 29.7063 206.966 31.1584Z" fill="black"/>
<path fill-rule="evenodd" clip-rule="evenodd" d="M175.366 31.5471C175.366 36.5156 178.738 38.3485 183.382 36.5288C184.908 35.9308 184.53 35.2216 184.678 37.3767C184.926 40.9908 170.476 42.7954 171.835 29.2969C173.045 17.2827 184.869 18.4336 185.034 26.2068C185.067 27.7614 185.066 29.5132 184.812 30.4294C184.51 31.5162 183.648 31.5471 182.019 31.5471H175.366ZM181.319 29.4817C180.979 29.7485 180.117 29.6384 178.811 29.6384H175.364C175.368 27.9234 175.675 24.3951 177.555 23.2952C179.774 21.9966 181.3 23.5893 181.653 25.5835C181.768 26.2315 181.844 29.0704 181.319 29.4817Z" fill="black"/>
<path fill-rule="evenodd" clip-rule="evenodd" d="M152.759 21.2704C150.848 20.3765 141.413 18.8318 139.176 24.7737C137.997 27.9049 138.044 35.5539 140.952 38.2346C142.136 39.3263 143.802 39.9872 145.569 39.9872C147.323 39.9205 148.531 39.668 149.192 39.2297C149.164 39.5087 149.133 39.7611 149.099 39.9872C148.372 44.8901 145.431 47.0712 140.274 46.5303C140.009 48.7047 140.792 49.6416 142.623 49.3409C148.36 48.8671 152.759 45.0923 152.759 38.9392V21.2704ZM149.078 23.3807C146.445 23.3807 144.198 22.7064 142.865 25.627C141.499 28.6219 141.647 33.8131 143.437 36.1224C144.739 37.8034 149.078 37.9591 149.078 35.347V23.3807Z" fill="black"/>
<path fill-rule="evenodd" clip-rule="evenodd" d="M48.1128 37.8742C48.8166 39.3226 52.7165 46.465 53.0771 47.7721C53.2579 48.4277 52.3783 49.3675 51.3438 49.3969H26.9197H2.56655C-0.46275 49.3969 1.13614 45.6056 2.44187 45.3177C9.29141 43.0225 16.4579 41.1732 23.7138 39.7654C31.2689 38.2997 38.7629 37.3948 46.273 36.875L46.2729 36.8732C47.1965 36.8093 47.8268 37.2856 48.1128 37.8742Z" fill="black"/>
<path fill-rule="evenodd" clip-rule="evenodd" d="M17.3817 16.6026C20.0897 11.2028 22.9076 5.92658 25.7359 0.582462L25.7336 0.578818C26.0161 0.0598266 26.915 -0.130665 27.4313 0.153244C27.6454 0.270906 27.8032 0.451722 27.8945 0.660051L32.5277 8.43692L32.531 8.43514C32.8135 8.9541 32.6239 9.60514 32.1077 9.88905C32.0425 9.92486 31.9752 9.95299 31.9071 9.97406C26.3992 12.0122 22.5477 13.3029 17.3817 16.6026Z" fill="black"/>
<path fill-rule="evenodd" clip-rule="evenodd" d="M22.5106 28.3585C21.0652 31.2298 19.6802 34.2445 17.9166 37.1295C17.5815 37.6777 16.8174 38.8919 16.1108 39.0233C11.9641 40.0486 7.88762 41.2237 3.75171 42.2299C3.98706 41.122 6.63612 36.2316 7.36833 35.1596C8.04822 34.1642 8.49657 33.7973 9.20449 33.4615C12.8731 31.7213 18.4524 29.3118 22.5106 28.3585ZM40.7537 25.1383C42.5001 27.6435 44.111 30.3569 45.6213 33.2252L45.6248 33.2234C45.9073 33.7424 45.7177 34.3934 45.2014 34.6773C45.0476 34.7618 44.8823 34.8042 44.7185 34.8085C43.2903 34.921 41.5071 35.0421 40.2076 35.1718C38.9056 35.3018 37.2861 35.2827 35.8518 35.457L35.8519 35.4578C35.3738 35.5159 34.7638 35.2461 34.5801 34.8244L30.4565 27.4891L30.453 27.4909C30.1706 26.9719 30.1926 26.4065 30.709 26.1226C30.82 26.0615 30.937 26.0224 31.0554 26.0038C32.3817 25.6999 34.3524 25.4203 35.6268 25.1654C36.9225 24.9061 38.247 24.7465 39.5999 24.5155L39.5996 24.5134C40.0915 24.4295 40.5618 24.6991 40.7537 25.1383Z" fill="black"/>
<path fill-rule="evenodd" clip-rule="evenodd" d="M34.5516 12.7369L39.1384 21.0083L39.1417 21.0065C39.4771 21.7124 39.3243 22.1467 38.3026 22.3306C28.7589 23.6556 17.5654 26.7322 9.7334 30.5302C10.3867 28.877 14.2173 21.6567 15.9877 20.2617C19.4974 17.4964 30.8059 12.563 33.2147 12.1658L33.2141 12.1628C33.7444 11.9698 34.3275 12.2259 34.5516 12.7369Z" fill="black"/>
</svg>
