<svg width="70" height="70" viewBox="0 0 70 70" fill="none" xmlns="http://www.w3.org/2000/svg">
<circle cx="35" cy="35" r="35" fill="#FF2800" fill-opacity="0.15"/>
<path fill-rule="evenodd" clip-rule="evenodd" d="M25.2367 20.1167C23.5299 20.517 22.1111 21.9589 21.7158 23.6949C20.9656 26.9882 23.657 30.0558 26.8769 29.577C28.7627 29.2967 30.3564 27.7696 30.7555 25.8607C30.9007 25.1658 30.823 23.8433 30.5993 23.2041C29.8178 20.9702 27.4382 19.6003 25.2367 20.1167ZM33.5522 20.1164C33.2489 20.1871 32.7265 20.3848 32.3915 20.5558L31.7823 20.8667L32.1584 21.5985C32.7079 22.6677 32.8957 23.479 32.9033 24.8156C32.9104 26.0753 32.7299 26.9132 32.23 27.9417C31.9408 28.5368 31.9465 28.675 32.2603 28.6789C32.5271 28.6822 33.3447 29.05 33.7421 29.3456C34.1757 29.6681 34.1817 29.6696 34.8268 29.6181C36.0187 29.523 37.0847 28.9875 37.8985 28.0752C38.4666 27.4384 38.7726 26.852 38.9846 25.9939C39.1971 25.134 39.1969 24.4965 38.984 23.6349C38.5954 22.0623 37.4895 20.812 36.019 20.2826C35.2814 20.0171 34.2706 19.949 33.5522 20.1164ZM41.7829 20.1221C41.3 20.2301 40.2185 20.7121 40.1312 20.8582C40.1141 20.887 40.2691 21.2654 40.4757 21.6992C40.9898 22.7785 41.1891 23.648 41.1883 24.8077C41.1876 25.956 40.9731 26.947 40.5181 27.905L40.1906 28.5943L40.414 28.645C40.9916 28.7764 41.4756 28.9828 41.9501 29.3003C42.5373 29.6931 42.8077 29.7257 43.7563 29.5175C45.4108 29.1546 46.8441 27.736 47.262 26.0476C47.4527 25.2769 47.3959 23.9138 47.1431 23.1942C46.5984 21.6435 45.2713 20.4602 43.6921 20.1169C42.9676 19.9596 42.5046 19.9608 41.7829 20.1221ZM20.4312 30.8257C19.9248 30.9897 19.5293 31.3364 19.247 31.8638L19 32.3253V37.9465C19 43.5247 19.0014 43.5734 19.1934 44.3001C19.9223 47.0598 21.8214 49.0419 24.4351 49.7707C25.3883 50.0365 27.0366 50.0362 27.9944 49.7702C30.4466 49.0888 32.2724 47.3153 33.0934 44.8172C33.4503 43.7314 33.478 43.1672 33.4507 37.5513L33.4249 32.2375L33.1897 31.8232C32.9029 31.3183 32.5026 30.9898 31.9728 30.8248C31.4137 30.6506 20.9693 30.6515 20.4312 30.8257ZM35.2321 31.2447L35.4614 31.7983L35.4612 37.9465L35.4611 44.0948L35.2337 44.9473C34.825 46.4799 34.1591 47.736 33.0699 49.0287C32.7751 49.3785 32.534 49.681 32.534 49.701C32.534 49.7509 33.4026 49.9169 34.0201 49.9852C34.3008 50.0161 34.8839 49.997 35.3158 49.9427C37.83 49.6262 39.9346 48.0658 41.0115 45.7197C41.6775 44.2689 41.6482 44.5976 41.6798 38.21C41.6997 34.184 41.68 32.4022 41.6131 32.1661C41.4952 31.7496 41.0138 31.1879 40.5583 30.9356C40.2287 30.7529 40.0956 30.7431 37.608 30.7177L35.0029 30.6911L35.2321 31.2447ZM43.3505 30.8493C43.8137 32.0333 43.7771 31.4224 43.7753 37.9465L43.7737 43.9191L43.5506 44.76C43.0902 46.4959 42.3869 47.8555 41.3613 48.9922C41.0331 49.356 40.7647 49.673 40.7647 49.6968C40.7647 49.8178 42.0249 49.9781 42.886 49.9667C45.7158 49.9292 48.1258 48.3021 49.3269 45.6182C49.982 44.1543 49.9599 44.4007 49.9925 38.1912C50.0125 34.4138 49.9926 32.5269 49.9305 32.2882C49.7982 31.7798 49.3536 31.2265 48.8699 30.9687C48.4495 30.7446 48.4457 30.7443 45.8687 30.7175C43.4097 30.692 43.2914 30.6982 43.3505 30.8493Z" fill="#FF2800"/>
</svg>
