<svg width="70" height="70" viewBox="0 0 70 70" fill="none" xmlns="http://www.w3.org/2000/svg">
<circle cx="35" cy="35" r="35" fill="#FF2800" fill-opacity="0.15"/>
<path fill-rule="evenodd" clip-rule="evenodd" d="M33.6601 18.0121C32.897 18.0743 31.4801 18.32 30.6753 18.5296C29.4998 18.8359 28.6782 19.1478 27.4252 19.7636C24.0863 21.4044 21.3972 24.1011 19.761 27.4493C18.9098 29.1914 18.4579 30.6172 18.1591 32.5046C17.9473 33.8427 17.9473 36.1551 18.1591 37.4932C18.4579 39.3806 18.9098 40.8064 19.761 42.5485C21.3972 45.8967 24.0863 48.5934 27.4252 50.2342C29.1623 51.0879 30.5841 51.541 32.4662 51.8407C33.8005 52.0531 36.1065 52.0531 37.4408 51.8407C39.3229 51.541 40.7447 51.0879 42.4818 50.2342C45.8207 48.5934 48.5098 45.8967 50.146 42.5485C50.7619 41.288 51.0723 40.4649 51.3768 39.2847C51.6254 38.3216 51.8656 36.8823 51.8666 36.3498C51.867 36.1599 51.8972 35.986 51.9337 35.9634C51.9731 35.9389 52 35.5179 52 34.9245C52 34.2763 51.9768 33.9412 51.9337 33.9679C51.8927 33.9933 51.8671 33.8742 51.8666 33.6559C51.8648 32.7186 51.3873 30.4857 50.9094 29.1788C50.5355 28.1566 49.684 26.4722 49.0936 25.5869C47.4158 23.0711 45.1481 21.0739 42.4818 19.7636C40.0484 18.5677 37.9648 18.0574 35.3183 18.0092C34.5887 17.9959 33.8425 17.9972 33.6601 18.0121ZM31.7338 26.9749C31.1485 27.2482 30.8401 27.7396 30.8426 28.3951C30.8452 29.1014 30.8742 29.1372 33.9106 32.1883L36.707 34.9982L33.8849 37.8421C32.0714 39.6696 31.0173 40.7811 30.9354 40.9521C30.7344 41.3717 30.7603 42.0004 30.9951 42.4016C31.4485 43.1763 32.4802 43.4515 33.1874 42.9863C33.48 42.7938 40.3255 35.9207 40.4471 35.6973C40.5962 35.4233 40.5956 34.5728 40.4461 34.3005C40.3859 34.1907 38.7831 32.5445 36.8843 30.6421C34.3526 28.1057 33.341 27.1345 33.0907 27.0004C32.6511 26.7647 32.202 26.7562 31.7338 26.9749ZM18 34.9989C18 35.5659 18.0102 35.7979 18.0226 35.5144C18.0351 35.2309 18.0351 34.7669 18.0226 34.4834C18.0102 34.1999 18 34.4318 18 34.9989Z" fill="#FF2800"/>
</svg>
