<svg width="31" height="28" viewBox="0 0 31 28" fill="none" xmlns="http://www.w3.org/2000/svg">
<path fill-rule="evenodd" clip-rule="evenodd" d="M5.90332 0.104938C5.74105 0.179028 4.72702 1.12961 2.83057 2.98541C0.188059 5.57123 0 5.76886 0 5.95988C0 6.15113 0.188846 6.34853 2.89111 8.98179C6.07667 12.086 6.00437 12.0289 6.5542 11.8715C6.75915 11.8128 6.97361 11.6396 7.60838 11.0202C8.83288 9.82532 8.83875 9.66922 7.70138 8.54399L6.99958 7.84976H15.6889C21.6682 7.84976 24.4902 7.86973 24.7374 7.91381C26.1044 8.15747 27.1186 9.3702 27.1263 10.7705C27.1289 11.2464 27.5063 11.7736 28.0016 11.9932C28.1989 12.0807 28.4001 12.1011 29.0625 12.1011C29.9961 12.1011 30.2201 12.0368 30.5938 11.6613C30.9454 11.308 31.0242 11.029 30.9822 10.285C30.8917 8.68218 30.1925 7.1686 29.0118 6.01961C28.1166 5.14837 27.1351 4.59908 25.858 4.25445L25.2783 4.09806L16.1403 4.08193L7.00225 4.06586L7.70265 3.37293C8.82507 2.26253 8.82265 2.09249 7.66796 0.944742C6.71531 -0.00212058 6.43244 -0.136712 5.90332 0.104938ZM0.873025 15.9971C0.545225 16.1424 0.210279 16.4873 0.0842812 16.8094C0.00145312 17.021 -0.0111406 17.1905 0.0178008 17.7037C0.178855 20.5553 2.20566 22.9427 5.13619 23.7329L5.72168 23.8907L14.8597 23.9069L23.9978 23.9229L23.2973 24.6158C22.1614 25.7396 22.1674 25.8962 23.3916 27.0908C24.0264 27.7102 24.2408 27.8834 24.4458 27.942C24.9956 28.0995 24.9233 28.1565 28.1089 25.0524C30.8153 22.415 31 22.222 31 22.0297C31 21.8374 30.8153 21.6443 28.1089 19.007C24.9233 15.9028 24.9956 15.9598 24.4458 16.1173C24.2408 16.176 24.0264 16.3491 23.3916 16.9686C22.1671 18.1635 22.1612 18.3196 23.2986 19.4448L24.0004 20.139H15.3111C9.33179 20.139 6.50982 20.119 6.26261 20.075C4.89564 19.8313 3.88142 18.6186 3.87367 17.2183C3.87106 16.7423 3.49368 16.2151 2.9984 15.9956C2.64251 15.8378 1.23019 15.8388 0.873025 15.9971Z" fill="#7C7C7C"/>
</svg>
