<svg width="43" height="31" viewBox="0 0 43 31" fill="none" xmlns="http://www.w3.org/2000/svg">
<path d="M19.7726 17.3126L34.9016 7.85699V4.07473L19.7726 13.5304L4.64358 4.07473V7.85699L19.7726 17.3126ZM33.0105 30.5505C32.4747 30.5505 32.0255 30.3693 31.6631 30.0068C31.3006 29.6443 31.1194 29.1952 31.1194 28.6594V22.986C31.1194 22.4502 31.3006 22.001 31.6631 21.6386C32.0255 21.2761 32.4747 21.0949 33.0105 21.0949V19.2037C33.0105 18.1636 33.3808 17.2732 34.1215 16.5325C34.8622 15.7918 35.7526 15.4215 36.7927 15.4215C37.8329 15.4215 38.7233 15.7918 39.464 16.5325C40.2046 17.2732 40.575 18.1636 40.575 19.2037V21.0949C41.1108 21.0949 41.56 21.2761 41.9224 21.6386C42.2849 22.001 42.4661 22.4502 42.4661 22.986V28.6594C42.4661 29.1952 42.2849 29.6443 41.9224 30.0068C41.56 30.3693 41.1108 30.5505 40.575 30.5505H33.0105ZM34.9016 21.0949H38.6839V19.2037C38.6839 18.6679 38.5026 18.2188 38.1402 17.8563C37.7777 17.4939 37.3286 17.3126 36.7927 17.3126C36.2569 17.3126 35.8078 17.4939 35.4453 17.8563C35.0828 18.2188 34.9016 18.6679 34.9016 19.2037V21.0949ZM4.64358 30.5505C3.60346 30.5505 2.71306 30.1802 1.97237 29.4395C1.23167 28.6988 0.861328 27.8084 0.861328 26.7683V4.07473C0.861328 3.03461 1.23167 2.14421 1.97237 1.40352C2.71306 0.662826 3.60346 0.29248 4.64358 0.29248H34.9016C35.9417 0.29248 36.8321 0.662826 37.5728 1.40352C38.3135 2.14421 38.6839 3.03461 38.6839 4.07473V11.6392H36.7927C34.1767 11.6392 31.9467 12.5612 30.1029 14.405C28.259 16.2489 27.3371 18.4788 27.3371 21.0949V30.5505H4.64358Z" fill="white"/>
</svg>
