<svg width="10" height="17" viewBox="0 0 10 17" fill="none" xmlns="http://www.w3.org/2000/svg">
<path d="M0.366122 14.5082L6.55333 8.32104L0.366122 2.13388C-0.122038 1.64572 -0.122038 0.85427 0.366122 0.36611C0.610192 0.12203 0.930102 6.14502e-10 1.25 6.14502e-10C1.5699 -9.99939e-06 1.88983 0.12203 2.13393 0.36611L9.20493 7.43714C9.43933 7.67164 9.57103 7.98954 9.57103 8.32104C9.57103 8.65264 9.43933 8.97054 9.20493 9.20494L2.13393 16.276C2.07283 16.337 2.00713 16.3904 1.93783 16.4362C1.4526 16.7565 0.793252 16.7031 0.366122 16.276C0.335612 16.2455 0.307002 16.2138 0.280312 16.1811C0.0928821 15.9513 -0.000547586 15.6704 2.41408e-06 15.3896C0.000162414 15.3105 0.00779201 15.2313 0.022882 15.1534C0.068652 14.917 0.183062 14.6913 0.366122 14.5082Z" fill="white"/>
</svg>
