<svg width="10" height="17" viewBox="0 0 10 17" fill="none" xmlns="http://www.w3.org/2000/svg">
<path d="M9.20492 2.13388L3.01776 8.32104L9.20492 14.5082C9.26592 14.5692 9.31932 14.635 9.36512 14.7043C9.68542 15.1895 9.63202 15.8488 9.20492 16.276C8.71682 16.7641 7.92532 16.7641 7.43712 16.276L0.36611 9.20494C0.33681 9.17564 0.30911 9.14504 0.28308 9.11324C0.10083 8.89084 0 8.61114 0 8.32104C0 7.98954 0.13169 7.67164 0.36611 7.43714L7.43712 0.366113C7.92532 -0.122038 8.71682 -0.122038 9.20492 0.366113C9.26592 0.427133 9.31932 0.492892 9.36512 0.562202C9.68542 1.04739 9.63202 1.70674 9.20492 2.13388Z" fill="white"/>
</svg>
