<svg width="19" height="19" viewBox="0 0 19 19" fill="none" xmlns="http://www.w3.org/2000/svg">
<path d="M9.55859 18.0938C7.25859 18.0938 5.25443 17.3313 3.54609 15.8063C1.83776 14.2813 0.858594 12.3771 0.608594 10.0938H2.65859C2.89193 11.8271 3.66276 13.2604 4.97109 14.3938C6.27943 15.5271 7.80859 16.0938 9.55859 16.0938C11.5086 16.0938 13.1628 15.4146 14.5211 14.0563C15.8794 12.6979 16.5586 11.0438 16.5586 9.09375C16.5586 7.14375 15.8794 5.48958 14.5211 4.13125C13.1628 2.77292 11.5086 2.09375 9.55859 2.09375C8.40859 2.09375 7.33359 2.36042 6.33359 2.89375C5.33359 3.42708 4.49193 4.16042 3.80859 5.09375H6.55859V7.09375H0.558594V1.09375H2.55859V3.44375C3.40859 2.37708 4.44609 1.55208 5.67109 0.96875C6.89609 0.385417 8.19193 0.09375 9.55859 0.09375C10.8086 0.09375 11.9794 0.33125 13.0711 0.80625C14.1628 1.28125 15.1128 1.92292 15.9211 2.73125C16.7294 3.53958 17.3711 4.48958 17.8461 5.58125C18.3211 6.67292 18.5586 7.84375 18.5586 9.09375C18.5586 10.3438 18.3211 11.5146 17.8461 12.6062C17.3711 13.6979 16.7294 14.6479 15.9211 15.4563C15.1128 16.2646 14.1628 16.9063 13.0711 17.3813C11.9794 17.8563 10.8086 18.0938 9.55859 18.0938ZM12.3586 13.2937L8.55859 9.49375V4.09375H10.5586V8.69375L13.7586 11.8938L12.3586 13.2937Z" fill="white"/>
</svg>
