<svg width="25" height="25" viewBox="0 0 25 25" fill="none" xmlns="http://www.w3.org/2000/svg">
<mask id="mask0_339_730" style="mask-type:alpha" maskUnits="userSpaceOnUse" x="0" y="0" width="25" height="25">
<rect x="0.5" y="0.0791016" width="24" height="24" fill="#D9D9D9"/>
</mask>
<g mask="url(#mask0_339_730)">
<path d="M15.95 15.1291L17.05 14.0791L14.95 11.9791C15.1333 11.6958 15.2708 11.3958 15.3625 11.0791C15.4542 10.7624 15.5 10.4291 15.5 10.0791C15.5 9.09577 15.1542 8.2666 14.4625 7.5916C13.7708 6.9166 12.95 6.5791 12 6.5791C11.05 6.5791 10.2292 6.9166 9.5375 7.5916C8.84583 8.2666 8.5 9.09577 8.5 10.0791C8.5 11.0624 8.84583 11.8916 9.5375 12.5666C10.2292 13.2416 11.05 13.5791 12 13.5791C12.35 13.5791 12.6792 13.5333 12.9875 13.4416C13.2958 13.3499 13.6 13.2124 13.9 13.0291L15.95 15.1291ZM12 12.0791C11.45 12.0791 10.9792 11.8833 10.5875 11.4916C10.1958 11.0999 10 10.6291 10 10.0791C10 9.5291 10.1958 9.05827 10.5875 8.6666C10.9792 8.27493 11.45 8.0791 12 8.0791C12.5333 8.0791 13 8.27493 13.4 8.6666C13.8 9.05827 14 9.5291 14 10.0791C14 10.6291 13.8042 11.0999 13.4125 11.4916C13.0208 11.8833 12.55 12.0791 12 12.0791ZM4.5 18.0791C3.95 18.0791 3.47917 17.8833 3.0875 17.4916C2.69583 17.0999 2.5 16.6291 2.5 16.0791V5.0791C2.5 4.5291 2.69583 4.05827 3.0875 3.6666C3.47917 3.27493 3.95 3.0791 4.5 3.0791H20.5C21.05 3.0791 21.5208 3.27493 21.9125 3.6666C22.3042 4.05827 22.5 4.5291 22.5 5.0791V16.0791C22.5 16.6291 22.3042 17.0999 21.9125 17.4916C21.5208 17.8833 21.05 18.0791 20.5 18.0791H4.5ZM1.5 21.0791V19.0791H23.5V21.0791H1.5Z" fill="white" fill-opacity="0.9"/>
</g>
</svg>
